<svg width="18" height="10" viewBox="0 0 18 10" fill="none" xmlns="http://www.w3.org/2000/svg">
<path d="M0.562487 1.36796H17.4375C17.748 1.36796 18 1.11593 18 0.805468C18 0.494955 17.748 0.242981 17.4375 0.242981H0.562487C0.251974 0.242981 0 0.495002 0 0.805468C0 1.11593 0.25202 1.36796 0.562487 1.36796Z" fill="white"/>
<path d="M17.4375 4.18048H0.562487C0.251974 4.18048 0 4.4325 0 4.74297C0 5.05343 0.25202 5.30545 0.562487 5.30545H17.4375C17.748 5.30545 18 5.05343 18 4.74297C18 4.4325 17.748 4.18048 17.4375 4.18048Z" fill="white"/>
<path d="M17.4375 8.13354H0.562487C0.251974 8.13354 0 8.38557 0 8.69603C0 9.0065 0.25202 9.25852 0.562487 9.25852H17.4375C17.748 9.25852 18 9.0065 18 8.69603C18 8.38557 17.748 8.13354 17.4375 8.13354Z" fill="white"/>
</svg>
