<svg width="99" height="101" viewBox="0 0 99 101" fill="none" xmlns="http://www.w3.org/2000/svg">
<path d="M14.9651 53.8694L10.1034 49.0126C10.0144 48.9228 9.90837 48.8516 9.79153 48.8031C9.67468 48.7546 9.54935 48.7297 9.42281 48.7301H0.548104C0.50356 48.7289 0.459702 48.7412 0.422283 48.7654C0.384865 48.7895 0.355635 48.8244 0.338428 48.8655C0.321222 48.9066 0.316844 48.9519 0.325868 48.9955C0.334893 49.039 0.356898 49.0789 0.388996 49.1098L5.13573 53.8694C5.21993 53.9538 5.26721 54.0682 5.26721 54.1873C5.26721 54.3065 5.21993 54.4208 5.13573 54.5052L0.388996 59.1678C0.35992 59.1991 0.34056 59.2381 0.333264 59.2802C0.325968 59.3223 0.331048 59.3656 0.34789 59.4049C0.364731 59.4441 0.392611 59.4777 0.428148 59.5014C0.463685 59.5251 0.505354 59.5381 0.548104 59.5386H9.43165C9.55615 59.5394 9.67958 59.5157 9.79487 59.4687C9.91015 59.4217 10.015 59.3525 10.1034 59.2649L14.9651 54.4081C15.0292 54.333 15.0644 54.2375 15.0644 54.1388C15.0644 54.04 15.0292 53.9446 14.9651 53.8694ZM9.05156 55.2205C8.83964 55.2205 8.63251 55.1576 8.45643 55.0398C8.28036 54.922 8.14328 54.7546 8.0626 54.5588C7.98191 54.3631 7.96125 54.1478 8.00324 53.9403C8.04523 53.7328 8.14798 53.5424 8.29845 53.3933C8.44891 53.2443 8.64032 53.1432 8.84837 53.103C9.05642 53.0628 9.27175 53.0852 9.46702 53.1674C9.6623 53.2496 9.82872 53.388 9.94518 53.5648C10.0616 53.7417 10.1229 53.9491 10.1211 54.1608C10.1165 54.4412 10.0018 54.7084 9.80167 54.905C9.60159 55.1016 9.33219 55.2117 9.05156 55.2117V55.2205Z" fill="white"/>
<path d="M83.196 53.8694L88.0577 49.0126C88.1454 48.9234 88.2499 48.8525 88.3652 48.804C88.4805 48.7555 88.6043 48.7303 88.7295 48.73H97.613C97.6558 48.7327 97.697 48.7472 97.7319 48.7721C97.7668 48.7969 97.7941 48.831 97.8106 48.8705C97.8272 48.91 97.8323 48.9533 97.8255 48.9956C97.8187 49.0378 97.8002 49.0774 97.7721 49.1097L93.0254 53.8694C92.9412 53.9538 92.8939 54.0681 92.8939 54.1873C92.8939 54.3064 92.9412 54.4207 93.0254 54.5052L97.7721 59.1677C97.8012 59.199 97.8206 59.2381 97.8279 59.2802C97.8351 59.3222 97.8301 59.3655 97.8132 59.4048C97.7964 59.444 97.7685 59.4776 97.733 59.5013C97.6974 59.5251 97.6558 59.538 97.613 59.5386H88.7295C88.605 59.5394 88.4815 59.5156 88.3663 59.4686C88.251 59.4216 88.1461 59.3524 88.0577 59.2648L83.196 54.408C83.1319 54.3329 83.0967 54.2374 83.0967 54.1387C83.0967 54.04 83.1319 53.9445 83.196 53.8694ZM89.1096 55.2204C89.3215 55.2204 89.5286 55.1575 89.7047 55.0397C89.8808 54.9219 90.0178 54.7545 90.0985 54.5588C90.1792 54.363 90.1999 54.1477 90.1579 53.9402C90.1159 53.7327 90.0131 53.5423 89.8627 53.3933C89.7122 53.2442 89.5208 53.1431 89.3128 53.1029C89.1047 53.0627 88.8894 53.0851 88.6941 53.1673C88.4988 53.2496 88.3324 53.3879 88.2159 53.5648C88.0995 53.7416 88.0382 53.9491 88.04 54.1608C88.0412 54.2999 88.0697 54.4375 88.1241 54.5656C88.1785 54.6937 88.2576 54.8099 88.3569 54.9075C88.4562 55.0051 88.5738 55.0822 88.703 55.1343C88.8321 55.1865 88.9703 55.2128 89.1096 55.2116V55.2204Z" fill="white"/>
<path d="M39.998 16.3306H58.1629C58.4442 16.3306 58.714 16.4422 58.9129 16.6409C59.1119 16.8397 59.2236 17.1092 59.2236 17.3902C59.2236 17.6713 59.1119 17.9408 58.9129 18.1395C58.714 18.3383 58.4442 18.4499 58.1629 18.4499H39.998C39.8584 18.4511 39.7199 18.4245 39.5907 18.3716C39.4615 18.3188 39.3441 18.2408 39.2453 18.1422C39.1466 18.0435 39.0685 17.9262 39.0156 17.7971C38.9627 17.668 38.9361 17.5297 38.9373 17.3902C38.9373 17.1092 39.049 16.8397 39.248 16.6409C39.4469 16.4422 39.7167 16.3306 39.998 16.3306Z" fill="#B37944"/>
<path d="M39.6535 20.039H58.5078C58.6049 20.0389 58.701 20.0585 58.7902 20.0966C58.8795 20.1348 58.96 20.1906 59.027 20.2608C59.094 20.3311 59.1459 20.4141 59.1798 20.505C59.2136 20.5959 59.2286 20.6928 59.2238 20.7896C59.1144 23.4097 57.9956 25.8861 56.1012 27.7013C54.2068 29.5165 51.6835 30.53 49.0585 30.53C46.4336 30.53 43.9103 29.5165 42.0159 27.7013C40.1215 25.8861 39.0027 23.4097 38.8933 20.7896C38.8881 20.6889 38.9043 20.5883 38.9408 20.4943C38.9773 20.4003 39.0332 20.315 39.105 20.2441C39.1768 20.1733 39.2628 20.1184 39.3573 20.083C39.4518 20.0477 39.5527 20.0327 39.6535 20.039Z" fill="#B37944"/>
<path d="M52.0815 0.356111C52.0662 0.299413 52.069 0.239363 52.0894 0.184308C52.1098 0.129252 52.1469 0.0819259 52.1955 0.0489067C52.2442 0.0158875 52.3019 -0.00118439 52.3606 6.38846e-05C52.4194 0.00131216 52.4763 0.0208186 52.5235 0.055872C53.4602 0.649244 54.2264 1.47564 54.7471 2.45402C55.2678 3.4324 55.525 4.52917 55.4935 5.63678C55.246 9.46923 50.3225 10.1845 49.7391 14.3437C49.731 14.3973 49.7077 14.4475 49.6718 14.4882C49.636 14.5289 49.5892 14.5585 49.5371 14.5734C49.4849 14.5883 49.4295 14.5879 49.3775 14.5722C49.3256 14.5565 49.2793 14.5262 49.2441 14.485C48.6526 13.8255 48.2289 13.0334 48.0088 12.1757C47.7888 11.318 47.7789 10.4199 47.98 9.55754C48.7137 6.36088 53.3809 5.83988 52.0815 0.356111Z" fill="#B37944"/>
<path d="M5.43515 40.191L6.72086 36.5323C7.37739 34.6641 8.4286 33.9835 9.87448 34.4906C10.671 34.7699 11.1373 35.3803 11.2732 36.3218C11.5824 35.8571 11.9603 35.5427 12.4069 35.3787C12.8566 35.2061 13.3585 35.217 13.9126 35.4113C14.7524 35.7058 15.2928 36.216 15.5337 36.9417C15.7777 37.6588 15.7098 38.5579 15.3298 39.639L14.0487 43.2847L12.9967 42.9158L13.1082 42.474C13.1704 42.2141 13.0933 42.0461 12.8768 41.9702L6.83788 39.8523L6.53904 40.5781L5.43515 40.191ZM10.9525 39.5174L13.6668 40.4694L14.0954 39.2498C14.4905 38.1254 14.2292 37.4023 13.3115 37.0804C12.8786 36.9286 12.4994 36.9559 12.174 37.1624C11.843 37.3572 11.5863 37.7141 11.4039 38.233L10.9525 39.5174ZM7.44605 38.2877L9.79669 39.1121L10.1341 38.152C10.3225 37.6157 10.3526 37.1842 10.2243 36.8575C10.0904 36.5191 9.82428 36.28 9.42601 36.1403C9.02775 36.0007 8.70077 36.0317 8.44508 36.2335C8.19244 36.4266 7.98253 36.7611 7.81535 37.2368L7.44605 38.2877Z" fill="white"/>
<path d="M20.7784 29.5054L17.2347 35.0125L16.2946 34.4088L16.506 34.0038C16.627 33.7648 16.5908 33.5832 16.3974 33.4589L11.0009 29.9932L10.5408 30.6317L9.55439 29.9982L12.9713 24.6882L14.8978 25.9254L14.2181 27.1602L13.7539 26.8621C13.6223 26.7776 13.5171 26.7373 13.438 26.7412C13.359 26.745 13.2723 26.8204 13.1778 26.9672L12.0736 28.6831L14.0581 29.9576L15.7815 27.2794L16.9652 28.0397L15.2418 30.7178L17.4121 32.1116L18.6132 30.245C18.7027 30.1058 18.7329 29.9996 18.7036 29.9261C18.6665 29.8477 18.5823 29.7663 18.4507 29.6818L17.8705 29.3092L18.7127 28.1788L20.7784 29.5054Z" fill="white"/>
<path d="M23.0858 25.3731C23.8789 24.604 23.9675 23.9025 23.3516 23.2687C23.0308 22.9386 22.6183 22.8642 22.114 23.0454C21.8392 23.1324 21.5145 23.2805 21.1402 23.4897C20.7724 23.6925 20.4509 23.8504 20.1756 23.9635C19.9006 24.0635 19.5933 24.137 19.2539 24.1841C18.5817 24.2717 17.9537 24.0151 17.3699 23.4143C16.7797 22.8069 16.5259 22.1297 16.6087 21.3826C16.6916 20.6225 17.0701 19.9156 17.7442 19.2618C18.4249 18.6017 19.1876 18.125 20.0322 17.8316L21.4757 19.3171L20.5319 20.3671L19.9738 19.7927C19.8775 19.6936 19.7938 19.6338 19.7224 19.6133C19.5278 19.5583 19.2323 19.7231 18.8357 20.1077C18.4458 20.4858 18.2224 20.8371 18.1655 21.1616C18.1151 21.4797 18.2311 21.784 18.5134 22.0745C18.7187 22.2858 18.9776 22.3938 19.2902 22.3984C19.4986 22.4015 19.7405 22.34 20.016 22.2139C20.2916 22.0749 20.5804 21.9295 20.8823 21.7778C21.1907 21.6197 21.4759 21.497 21.7377 21.4098C22.0062 21.3162 22.3133 21.2492 22.6591 21.2087C23.351 21.1149 23.9984 21.3782 24.6015 21.9988C25.2045 22.6195 25.4546 23.3259 25.3516 24.1183C25.2553 24.9042 24.8403 25.6529 24.1068 26.3643C23.3798 27.0693 22.594 27.5685 21.7494 27.8618L20.2289 26.2971L21.1727 25.2471L21.7597 25.8512C21.8559 25.9503 21.9397 26.0101 22.0111 26.0307C22.0824 26.0512 22.2066 26.0205 22.3837 25.9386C22.561 25.8436 22.795 25.6551 23.0858 25.3731Z" fill="white"/>
<path d="M29.3663 20.0794L26.1292 14.7122L25.2061 15.2678C25.0247 15.377 25.0076 15.5538 25.155 15.7981L25.4901 16.3537L24.2331 16.9975L23.021 14.9878L29.2101 11.2624L30.4222 13.2722L29.2651 14.0815L28.93 13.5258C28.8492 13.3919 28.7724 13.3092 28.6997 13.2777C28.627 13.2463 28.5156 13.2757 28.3658 13.3659L27.561 13.8503L30.9693 19.5012L31.9255 18.974L32.5316 19.9789L29.1945 21.9876L28.6169 21.03L29.2227 20.617C29.4372 20.4556 29.4851 20.2764 29.3663 20.0794Z" fill="white"/>
<path d="M67.2698 19.5674C68.2314 20.1084 68.9288 19.9947 69.3621 19.2262C69.5878 18.8259 69.5424 18.4103 69.226 17.9792C69.0648 17.7409 68.831 17.4722 68.5246 17.1733C68.2262 16.8788 67.9838 16.6159 67.7976 16.3846C67.6239 16.1498 67.4665 15.8767 67.3254 15.5653C67.0512 14.9471 67.1194 14.2737 67.5301 13.5452C67.9453 12.8088 68.5227 12.3744 69.2622 12.2422C70.0143 12.1065 70.799 12.2685 71.6163 12.7284C72.4417 13.1928 73.1144 13.7875 73.6345 14.5125L72.6191 16.3137L71.3457 15.7079L71.7383 15.0114C71.806 14.8914 71.8396 14.7943 71.8392 14.7202C71.8368 14.5185 71.5952 14.2824 71.1144 14.0119C70.6416 13.7459 70.2416 13.6315 69.9145 13.6689C69.5953 13.7108 69.3365 13.9078 69.1379 14.2601C68.9935 14.5162 68.9632 14.7945 69.0472 15.0948C69.1032 15.295 69.2306 15.5091 69.4294 15.7369C69.6407 15.9612 69.8617 16.1963 70.0926 16.4422C70.3314 16.6925 70.5296 16.9306 70.6873 17.1564C70.853 17.3867 71.0042 17.6616 71.1408 17.981C71.4265 18.6162 71.3572 19.3101 70.933 20.0626C70.5087 20.8151 69.9023 21.2542 69.1137 21.3799C68.3331 21.5101 67.4981 21.325 66.6086 20.8245C65.7271 20.3285 65.0264 19.7181 64.5062 18.9931L65.5759 17.0958L66.8493 17.7016L66.4363 18.4341C66.3686 18.5542 66.335 18.6512 66.3355 18.7253C66.3359 18.7994 66.4005 18.9095 66.5292 19.0557C66.6704 19.1985 66.9172 19.369 67.2698 19.5674Z" fill="white"/>
<path d="M76.4147 26.097L78.0408 24.347L75.1752 21.6896L73.2765 23.7329L73.8356 24.3079L73.0367 25.1677L70.5863 22.8953L71.3476 22.076L71.71 22.3555C71.9245 22.5168 72.1101 22.5132 72.2668 22.3446L76.6376 17.6408L76.0886 17.0752L76.8875 16.2154L79.338 18.4878L78.5766 19.3072L78.2143 19.0276C78.0937 18.941 77.9879 18.8993 77.8968 18.9027C77.8119 18.8994 77.7131 18.9584 77.6003 19.0798L76.1434 20.6477L79.0089 23.3051L80.7384 21.4438L80.1895 20.8782L80.9884 20.0184L83.4388 22.2908L82.6775 23.1102L82.3151 22.8306C82.1006 22.6693 81.9024 22.6865 81.7207 22.882L77.3876 27.5453L77.9365 28.1109L77.1376 28.9707L74.6872 26.6983L75.4485 25.879L75.8109 26.1585C75.9247 26.2389 76.024 26.2808 76.1088 26.2841C76.1999 26.2808 76.3019 26.2184 76.4147 26.097Z" fill="white"/>
<path d="M87.6692 28.2043C88.2461 29.1353 88.3996 30.1172 88.1296 31.1499C87.8596 32.1826 87.0472 33.1179 85.6924 33.9558C84.3454 34.7889 83.1294 35.108 82.0446 34.9131C80.9724 34.7213 80.1067 34.0933 79.4473 33.0293C78.7928 31.9731 78.6235 30.9307 78.9394 29.9021C79.2552 28.8735 80.071 27.9523 81.3867 27.1387C82.1072 26.6931 82.803 26.4088 83.4743 26.2859C84.1534 26.1581 84.7484 26.1743 85.2593 26.3345C86.2938 26.6578 87.0971 27.2811 87.6692 28.2043ZM82.3544 28.5693C80.4122 29.7704 79.8581 31.0438 80.692 32.3895C81.138 33.1092 81.7483 33.4298 82.5228 33.3512C83.2124 33.2927 83.937 33.0285 84.6966 32.5588C85.378 32.1374 85.9318 31.6326 86.358 31.0443C86.5888 30.7176 86.7095 30.3616 86.7199 29.9764C86.7352 29.599 86.6095 29.1951 86.3429 28.7648C86.0762 28.3345 85.705 28.0501 85.2291 27.9115C84.7581 27.7807 84.2866 27.7802 83.8144 27.9098C83.3423 28.0395 82.8556 28.2593 82.3544 28.5693Z" fill="white"/>
<path d="M82.4652 38.1401L83.5327 37.8047L83.7091 38.2267C83.8156 38.473 83.9787 38.5616 84.1983 38.4926L90.3267 36.567L90.13 35.8041L91.2502 35.4521L92.4358 39.2176C92.7453 40.2007 92.7529 41.0375 92.4586 41.728C92.1758 42.4246 91.5731 42.9178 90.6506 43.2077C89.728 43.4975 88.9094 43.4123 88.1948 42.952C87.489 42.4889 86.9744 41.7439 86.6511 40.7169L86.2988 39.5978L84.3877 40.1983L84.7462 41.4747L83.6259 41.8267L82.4652 38.1401ZM87.5771 39.1961L87.8756 40.1441C88.2791 41.4256 89.0036 41.9021 90.0492 41.5736C90.6818 41.3748 91.0466 41.0769 91.1437 40.6798C91.2523 40.2888 91.1933 39.7334 90.9667 39.0137L90.7138 38.2105L87.5771 39.1961Z" fill="white"/>
<path d="M12.8732 68.1284L13.1812 67.998L13.4913 68.7291L10.9375 69.8106L10.7901 69.4632L13.036 68.512L12.8732 68.1284Z" fill="white"/>
<path d="M13.7094 72.4579C13.3197 72.6744 13.0517 72.9072 12.9053 73.1565C12.7589 73.4057 12.7737 73.6884 12.9496 74.0044C13.1255 74.3204 13.3581 74.4821 13.6473 74.4893C13.9377 74.4989 14.2778 74.3954 14.6675 74.1789C15.0526 73.9649 15.3177 73.7321 15.4628 73.4806C15.6092 73.2314 15.5944 72.9487 15.4185 72.6327C15.2426 72.3167 15.01 72.155 14.7209 72.1478C14.434 72.1393 14.0968 72.2426 13.7094 72.4579ZM14.4954 73.8697C14.2959 73.9805 14.1203 74.0586 13.9685 74.104C13.8202 74.1503 13.6837 74.1558 13.5588 74.1202C13.434 74.0846 13.3295 73.9912 13.2453 73.8401C13.1625 73.6912 13.1388 73.5544 13.1744 73.4297C13.2101 73.305 13.2861 73.1908 13.4024 73.0872C13.5224 72.9845 13.6821 72.8778 13.8815 72.767C14.0787 72.6575 14.2514 72.5795 14.3996 72.5331C14.5492 72.489 14.6852 72.4854 14.8078 72.5223C14.9326 72.5578 15.0365 72.6501 15.1194 72.7989C15.2035 72.9501 15.2278 73.088 15.1921 73.2127C15.1588 73.3362 15.0833 73.4486 14.9657 73.5499C14.8493 73.6536 14.6925 73.7602 14.4954 73.8697Z" fill="white"/>
<path d="M15.8051 76.0328C15.4399 76.2885 15.1975 76.5479 15.0778 76.811C14.958 77.074 15.0021 77.3536 15.2098 77.6497C15.4176 77.9458 15.6657 78.0825 15.9541 78.0598C16.2439 78.0392 16.5714 77.9011 16.9366 77.6453C17.2974 77.3927 17.537 77.1337 17.6552 76.8685C17.7749 76.6054 17.7309 76.3259 17.5231 76.0298C17.3153 75.7336 17.0673 75.5969 16.7789 75.6197C16.4927 75.6409 16.1681 75.7786 15.8051 76.0328ZM16.7333 77.3557C16.5464 77.4865 16.3799 77.5824 16.2336 77.6432C16.0909 77.7047 15.9557 77.7242 15.8278 77.7018C15.6999 77.6793 15.5863 77.5973 15.4869 77.4557C15.3891 77.3162 15.3514 77.1826 15.3738 77.0548C15.3963 76.9271 15.4601 76.8057 15.5651 76.6905C15.6737 76.576 15.8215 76.4534 16.0083 76.3225C16.1931 76.1931 16.3567 76.0977 16.4994 76.0362C16.6435 75.9769 16.7785 75.9592 16.9042 75.9831C17.0321 76.0056 17.1449 76.0866 17.2428 76.226C17.3422 76.3677 17.3806 76.5023 17.3582 76.6301C17.3378 76.7563 17.2744 76.8759 17.1679 76.9889C17.0629 77.1041 16.918 77.2263 16.7333 77.3557Z" fill="white"/>
<path d="M19.4883 78.6969C19.5992 78.8193 19.6509 78.9563 19.6434 79.1081C19.6396 79.26 19.5725 79.3949 19.4422 79.5127C19.3119 79.6306 19.1718 79.6849 19.0219 79.6756C18.8719 79.6663 18.7406 79.5995 18.6279 79.4751C18.5152 79.3508 18.4617 79.2137 18.4673 79.0637C18.4729 78.9137 18.5408 78.7798 18.6711 78.6619C18.8014 78.5441 18.9415 78.4898 19.0915 78.4991C19.2434 78.5066 19.3757 78.5726 19.4883 78.6969ZM20.5131 79.8803L17.3844 80.5628L17.1468 80.3005L20.2754 79.6181L20.5131 79.8803ZM18.8401 78.8484C18.7623 78.9188 18.7185 78.9973 18.7086 79.084C18.7005 79.1726 18.7281 79.2519 18.7915 79.3219C18.8567 79.3937 18.9338 79.43 19.0229 79.4307C19.112 79.4314 19.1954 79.3966 19.2732 79.3263C19.351 79.2559 19.3939 79.1764 19.4021 79.0878C19.4102 78.9991 19.3817 78.9189 19.3165 78.847C19.2531 78.7771 19.1769 78.7417 19.0878 78.741C19.0005 78.7423 18.9179 78.7781 18.8401 78.8484ZM19.0346 80.7086C19.1473 80.8329 19.1999 80.9691 19.1926 81.1172C19.187 81.2672 19.119 81.4011 18.9888 81.5189C18.8585 81.6368 18.7174 81.6919 18.5655 81.6844C18.4173 81.677 18.2868 81.6112 18.1742 81.4869C18.0633 81.3645 18.0097 81.2273 18.0136 81.0754C18.0211 80.9236 18.09 80.7888 18.2203 80.671C18.3506 80.5532 18.4907 80.4989 18.6406 80.5082C18.7906 80.5175 18.9219 80.5843 19.0346 80.7086ZM18.3893 80.8575C18.3115 80.9278 18.2677 81.0064 18.2578 81.0931C18.2497 81.1817 18.2782 81.262 18.3433 81.3339C18.4067 81.4038 18.4821 81.4381 18.5694 81.4369C18.6585 81.4376 18.742 81.4028 18.8197 81.3324C18.8975 81.2621 18.9405 81.1826 18.9486 81.0939C18.9585 81.0072 18.9317 80.9289 18.8683 80.859C18.8032 80.7871 18.7261 80.7508 18.637 80.7501C18.5496 80.7513 18.4671 80.7871 18.3893 80.8575Z" fill="white"/>
<path d="M25.9975 84.8512C26.2021 85.0066 26.3493 85.1942 26.4391 85.4139C26.531 85.6352 26.558 85.8681 26.5201 86.1125C26.4838 86.355 26.3831 86.5846 26.2179 86.8015C26.0528 87.0184 25.8573 87.1777 25.6316 87.2794C25.4074 87.3791 25.1763 87.4142 24.9384 87.3848C24.7025 87.357 24.4822 87.2653 24.2776 87.1099C24.073 86.9544 23.9238 86.7652 23.8298 86.5424C23.7379 86.3211 23.7101 86.0892 23.7464 85.8468C23.7843 85.6023 23.8858 85.3716 24.0509 85.1547C24.2161 84.9378 24.4108 84.7796 24.6349 84.6799C24.8607 84.5782 25.0926 84.5421 25.3305 84.5715C25.5706 84.6025 25.7929 84.6957 25.9975 84.8512ZM25.795 85.1171C25.6426 85.0013 25.4789 84.9328 25.3038 84.9117C25.1324 84.8901 24.9622 84.9188 24.7933 84.9978C24.628 85.0764 24.4787 85.2032 24.3453 85.3784C24.2135 85.5515 24.131 85.7292 24.0977 85.9113C24.0666 86.0951 24.0835 86.2676 24.1485 86.429C24.2172 86.5898 24.3277 86.7281 24.4801 86.8439C24.6304 86.9582 24.7921 87.025 24.9651 87.0446C25.1401 87.0657 25.3103 87.037 25.4756 86.9584C25.6445 86.8794 25.7949 86.7533 25.9267 86.5802C26.0601 86.405 26.1416 86.2266 26.1712 86.0449C26.2044 85.8628 26.1867 85.6913 26.118 85.5304C26.053 85.3691 25.9454 85.2313 25.795 85.1171Z" fill="white"/>
<path d="M28.0184 89.633L27.9922 88.2899L27.6599 88.0868L27.0686 89.0525L26.7631 88.8658L28.2107 86.502L28.9894 86.9778C29.2579 87.1419 29.4195 87.3298 29.4744 87.5415C29.5306 87.751 29.4937 87.9619 29.3637 88.1743C29.246 88.3665 29.0971 88.489 28.9172 88.5419C28.7386 88.5925 28.5386 88.5701 28.3172 88.4747L28.3641 89.8442L28.0184 89.633ZM27.7954 87.8655L28.2418 88.1383C28.5886 88.3503 28.8551 88.3043 29.0413 88.0003C29.2274 87.6963 29.1471 87.4383 28.8003 87.2263L28.3539 86.9535L27.7954 87.8655Z" fill="white"/>
<path d="M32.1348 88.6642L30.911 91.151L30.5897 90.9932L31.8135 88.5063L32.1348 88.6642Z" fill="white"/>
<path d="M35.413 90.0673C35.7139 90.1834 35.9371 90.3552 36.0826 90.5827C36.2304 90.8111 36.2902 91.0674 36.262 91.3514L35.9096 91.2154C35.9089 91.0354 35.8548 90.8698 35.7473 90.7188C35.6423 90.5687 35.4919 90.4559 35.2961 90.3804C35.12 90.3124 34.9461 90.293 34.7745 90.3223C34.6038 90.3492 34.4488 90.4228 34.3095 90.5432C34.1726 90.6645 34.0644 90.8279 33.985 91.0332C33.9037 91.2434 33.8737 91.4411 33.8949 91.6263C33.917 91.809 33.983 91.9693 34.0928 92.1071C34.206 92.2435 34.3555 92.3476 34.5415 92.4193C34.7005 92.4807 34.8594 92.5027 35.018 92.4852C35.1765 92.4677 35.3225 92.4103 35.4558 92.3128C35.5924 92.2139 35.7034 92.0797 35.7886 91.9103L34.7719 91.518L34.8683 91.2687L36.1676 91.7701L36.0485 92.0781C35.9471 92.2749 35.8116 92.4361 35.6421 92.5617C35.4727 92.6873 35.2797 92.7646 35.0633 92.7934C34.8468 92.8223 34.6249 92.7928 34.3973 92.705C34.1477 92.6087 33.9488 92.4687 33.8004 92.2851C33.6531 92.099 33.5638 91.8862 33.5327 91.6466C33.505 91.4056 33.5408 91.1567 33.64 90.9001C33.7393 90.6434 33.8798 90.4364 34.0615 90.279C34.2467 90.1201 34.4564 90.0212 34.6908 89.9824C34.9251 89.9436 35.1658 89.9719 35.413 90.0673Z" fill="white"/>
<path d="M38.3956 91.0874L37.6272 93.75L37.2832 93.651L38.0515 90.9883L38.3956 91.0874Z" fill="white"/>
<path d="M42.2121 94.836L41.8606 94.7679L40.864 92.3447L40.4468 94.4941L40.0953 94.426L40.6233 91.7056L40.9748 91.7736L41.9706 94.2007L42.3885 92.0475L42.74 92.1155L42.2121 94.836Z" fill="white"/>
<path d="M46.1793 94.5828L44.9635 94.4857L44.6809 95.1058L44.2965 95.0751L45.5373 92.4456L45.9413 92.4779L46.7439 95.2707L46.3595 95.24L46.1793 94.5828ZM46.0996 94.2965L45.7053 92.8612L45.0877 94.2156L46.0996 94.2965Z" fill="white"/>
<path d="M49.2533 95.0881L50.2368 95.0715L50.2415 95.3505L48.9 95.3732L48.853 92.6025L49.211 92.5965L49.2533 95.0881Z" fill="white"/>
<path d="M56.2636 91.9421C56.5964 91.881 56.8864 91.9131 57.1334 92.0383C57.38 92.1609 57.5706 92.3563 57.7053 92.6247L57.3338 92.6929C57.2309 92.5252 57.0924 92.4028 56.9182 92.3255C56.7435 92.2457 56.5439 92.2263 56.3195 92.2675C56.1415 92.3002 55.9896 92.3734 55.8638 92.487C55.7401 92.5976 55.6519 92.7417 55.5992 92.9192C55.5486 93.0937 55.5432 93.2892 55.583 93.5057C55.6224 93.7196 55.6967 93.8991 55.8061 94.0442C55.918 94.1889 56.0517 94.2922 56.2071 94.3543C56.3646 94.4133 56.5324 94.4265 56.7104 94.3938C56.9349 94.3526 57.1148 94.265 57.2501 94.1309C57.385 93.9943 57.4707 93.8294 57.5072 93.6362L57.8787 93.568C57.8483 93.8666 57.7399 94.1183 57.5535 94.323C57.3666 94.5252 57.1068 94.6568 56.774 94.7178C56.5186 94.7647 56.2822 94.7481 56.0648 94.6681C55.8469 94.5856 55.6633 94.4501 55.514 94.2617C55.3668 94.0702 55.2685 93.8404 55.2193 93.5724C55.1695 93.3018 55.1794 93.0509 55.2489 92.8197C55.321 92.588 55.4444 92.3961 55.6191 92.2442C55.7934 92.0896 56.0082 91.9889 56.2636 91.9421Z" fill="white"/>
<path d="M60.1035 90.9628C60.3501 90.8903 60.5886 90.8831 60.8189 90.941C61.0518 90.9983 61.2555 91.1146 61.4302 91.29C61.6041 91.4628 61.7296 91.68 61.8066 91.9414C61.8835 92.2029 61.8961 92.4546 61.8443 92.6965C61.7918 92.9359 61.6831 93.1427 61.5184 93.3167C61.3561 93.49 61.1517 93.6129 60.9051 93.6854C60.6585 93.7579 60.4175 93.7658 60.1821 93.7094C59.9493 93.6521 59.7459 93.5371 59.572 93.3642C59.3973 93.1888 59.2715 92.9704 59.1945 92.709C59.1175 92.4475 59.1053 92.1971 59.1579 91.9577C59.2097 91.7157 59.3179 91.5077 59.4827 91.3337C59.65 91.1589 59.8569 91.0353 60.1035 90.9628ZM60.1979 91.2833C60.0142 91.3373 59.8619 91.4285 59.7411 91.5568C59.6221 91.6819 59.5444 91.8359 59.508 92.0187C59.4734 92.1982 59.4871 92.3935 59.5493 92.6047C59.6107 92.8134 59.705 92.985 59.8322 93.1198C59.9619 93.2537 60.111 93.3424 60.2796 93.3857C60.45 93.4258 60.627 93.4188 60.8107 93.3649C60.9919 93.3116 61.1416 93.2212 61.2599 93.0936C61.3807 92.9652 61.4584 92.8113 61.493 92.6317C61.5295 92.449 61.517 92.2532 61.4555 92.0446C61.3933 91.8334 61.2978 91.6621 61.1689 91.5306C61.0417 91.3959 60.8929 91.3085 60.7226 91.2685C60.554 91.2251 60.3791 91.2301 60.1979 91.2833Z" fill="white"/>
<path d="M64.1539 89.4791L64.2641 89.7483L63.1423 90.2062L63.5054 91.0941L64.456 90.706L64.5617 90.9644L63.611 91.3524L64.0813 92.5022L63.7499 92.6375L62.7007 90.0723L64.1539 89.4791Z" fill="white"/>
<path d="M67.5518 87.88L67.6855 88.1384L66.609 88.6943L67.0498 89.5463L67.9621 89.0752L68.0903 89.3231L67.178 89.7942L67.7489 90.8976L67.4308 91.0618L66.1572 88.6001L67.5518 87.88Z" fill="white"/>
<path d="M69.774 86.8623L70.2934 87.6549L71.1756 87.0778L71.3265 87.308L70.4443 87.8851L70.9745 88.694L71.9554 88.0524L72.1149 88.2957L70.8344 89.1333L69.3149 86.8149L70.5954 85.9774L70.7549 86.2207L69.774 86.8623Z" fill="white"/>
<path d="M72.9373 84.6961L73.5343 85.4321L74.3536 84.7688L74.527 84.9826L73.7077 85.6458L74.3171 86.3971L75.228 85.6596L75.4114 85.8856L74.2222 86.8483L72.4758 84.6953L73.665 83.7327L73.8483 83.9586L72.9373 84.6961Z" fill="white"/>
<path d="M79.1166 80.265C79.2567 80.1613 79.4087 80.1116 79.5725 80.1159C79.7381 80.1182 79.8849 80.1756 80.013 80.288C80.1824 80.4368 80.2673 80.6142 80.2676 80.8203C80.2696 81.0244 80.1745 81.2357 79.9823 81.4542L79.3018 82.2277L77.2183 80.3984L77.8884 79.6367C78.0719 79.4281 78.2576 79.3103 78.4454 79.2833C78.6333 79.2563 78.808 79.3138 78.9696 79.4556C79.1035 79.5733 79.1799 79.7048 79.1985 79.8503C79.219 79.9938 79.1916 80.132 79.1166 80.265ZM78.3678 80.9315L78.7626 80.4828C78.8787 80.3509 78.9364 80.2237 78.936 80.1012C78.9372 79.9767 78.8827 79.866 78.7723 79.7691C78.6659 79.6757 78.5519 79.6367 78.4302 79.6519C78.3085 79.6672 78.1854 79.7457 78.0607 79.8874L77.6763 80.3244L78.3678 80.9315ZM79.7136 81.3072C79.8382 81.1654 79.9018 81.0277 79.9044 80.8938C79.9086 80.758 79.8516 80.6382 79.7334 80.5344C79.6171 80.4323 79.491 80.3931 79.355 80.4167C79.2187 80.4367 79.0883 80.5175 78.9636 80.6592L78.5688 81.108L79.3136 81.7619L79.7136 81.3072Z" fill="white"/>
<path d="M80.2801 77.1489L81.0524 77.6984L81.6642 76.8404L81.8885 77L81.2768 77.8581L82.0651 78.419L82.7453 77.4649L82.9825 77.6337L82.0946 78.8791L79.8352 77.2715L80.7231 76.0261L80.9603 76.1948L80.2801 77.1489Z" fill="white"/>
<path d="M84.6409 73.7499L84.0394 74.8099L84.4828 75.3277L84.2926 75.6627L82.4305 73.4288L82.6304 73.0766L85.5035 73.5291L85.3133 73.8642L84.6409 73.7499ZM84.3474 73.7012L82.8786 73.4522L83.8468 74.5834L84.3474 73.7012Z" fill="white"/>
<path d="M87.2739 69.6476L87.1311 69.9756L84.5471 70.422L86.557 71.295L86.4142 71.623L83.8704 70.5181L84.0131 70.19L86.6007 69.7453L84.5873 68.8707L84.7301 68.5427L87.2739 69.6476Z" fill="white"/>
<path d="M15.0271 64.6426C17.4453 71.7504 22.0308 77.9233 28.1399 82.2948C34.2489 86.6664 41.5749 89.0171 49.0895 89.0171C56.6041 89.0171 63.9301 86.6664 70.0392 82.2948C76.1483 77.9233 80.7337 71.7504 83.152 64.6426" stroke="white" stroke-width="1.51" stroke-miterlimit="10"/>
<path d="M3.53564 64.6426C6.10991 74.7527 11.9831 83.7176 20.2271 90.1208C28.4711 96.5239 38.6158 100 49.0583 100C59.5008 100 69.6455 96.5239 77.8895 90.1208C86.1335 83.7176 92.0067 74.7527 94.5809 64.6426" stroke="white" stroke-width="1.51" stroke-miterlimit="10"/>
<path d="M98.1522 64.6426H78.573" stroke="white" stroke-width="1.51" stroke-miterlimit="10"/>
<path d="M19.588 64.6426H0" stroke="white" stroke-width="1.51" stroke-miterlimit="10"/>
<path fill-rule="evenodd" clip-rule="evenodd" d="M48.8978 72.9673L53.7416 77.811L54.2514 77.3011L49.4077 72.4574L54.2517 67.6134L53.7418 67.1036L48.8978 71.9475L44.0538 67.1035L43.5439 67.6134L48.388 72.4574L43.5442 77.3012L44.0541 77.8111L48.8978 72.9673Z" fill="white"/>
<path d="M35.6579 47.4726V59.2509H33.57V49.4178L30.7146 59.2509H29.3226L26.4673 49.3821V59.2509H24.7898V47.4726H27.9307L30.3042 55.9494L32.6598 47.4726H35.6579Z" fill="white"/>
<path d="M38.8972 46.4019C39.2898 46.4019 39.6051 46.497 39.843 46.6874C40.0929 46.8777 40.2178 47.1514 40.2178 47.5083C40.2178 47.8771 40.0869 48.1626 39.8252 48.3649C39.5754 48.5553 39.2482 48.6504 38.8437 48.6504C38.4511 48.6504 38.1358 48.5553 37.8978 48.3649C37.6599 48.1745 37.5409 47.9009 37.5409 47.544C37.5409 47.1752 37.6658 46.8956 37.9157 46.7052C38.1774 46.503 38.5046 46.4019 38.8972 46.4019ZM39.8252 57.7875C39.8252 58.3705 40.0096 58.7631 40.3784 58.9653C40.2832 59.1438 40.1286 59.2806 39.9144 59.3758C39.7003 59.471 39.4683 59.5186 39.2184 59.5186C38.7663 59.5186 38.4273 59.3877 38.2012 59.1259C37.9752 58.8642 37.8622 58.4954 37.8622 58.0195V50.1495H39.8252V57.7875Z" fill="white"/>
<path d="M42.3261 59.2509V46.7588L44.2892 46.5446V59.2509H42.3261ZM47.5193 50.1495H49.5894L46.5021 53.9328L49.6608 59.2509H47.3765L44.539 54.254L47.5193 50.1495Z" fill="white"/>
<path d="M50.8308 59.2509V46.7588L52.7938 46.5446V59.2509H50.8308ZM56.0239 50.1495H58.094L55.0067 53.9328L58.1654 59.2509H55.8812L53.0437 54.254L56.0239 50.1495Z" fill="white"/>
<path d="M65.0104 56.7346C65.2841 56.8655 65.4209 57.1213 65.4209 57.502C65.4209 57.9303 65.2781 58.311 64.9926 58.6441C64.707 58.9653 64.3382 59.2092 63.8861 59.3758C63.434 59.5542 62.976 59.6435 62.512 59.6435C61.2033 59.6435 60.2337 59.2211 59.6031 58.3764C58.9726 57.5198 58.6573 56.3717 58.6573 54.9322C58.6573 53.3974 58.9964 52.1601 59.6745 51.2202C60.3646 50.2685 61.4056 49.7926 62.7975 49.7926C63.6779 49.7926 64.3858 50.0246 64.9212 50.4886C65.4566 50.9406 65.7243 51.5831 65.7243 52.4159C65.7243 53.451 65.3614 54.1767 64.6357 54.5931C63.9218 55.0095 62.9463 55.2177 61.7089 55.2177C61.3639 55.2177 61.0368 55.2058 60.7274 55.182C60.7631 56.1219 60.9178 56.8714 61.1914 57.4306C61.4769 57.9898 61.9766 58.2693 62.6905 58.2693C63.2139 58.2693 63.672 58.1385 64.0646 57.8767C64.4691 57.6031 64.7844 57.2224 65.0104 56.7346ZM62.512 50.8098C61.8696 50.8098 61.4175 51.1489 61.1557 51.827C60.894 52.4932 60.7512 53.3141 60.7274 54.2897C61.0843 54.3135 61.3461 54.3254 61.5126 54.3254C63.0117 54.3254 63.7612 53.7246 63.7612 52.523C63.7612 52.0352 63.6541 51.6307 63.44 51.3095C63.2377 50.9763 62.9284 50.8098 62.512 50.8098Z" fill="white"/>
<path d="M73.184 56.7346C73.4576 56.8655 73.5944 57.1213 73.5944 57.502C73.5944 57.9303 73.4516 58.311 73.1661 58.6441C72.8806 58.9653 72.5118 59.2092 72.0597 59.3758C71.6076 59.5542 71.1495 59.6435 70.6855 59.6435C69.3768 59.6435 68.4072 59.2211 67.7767 58.3764C67.1461 57.5198 66.8308 56.3717 66.8308 54.9322C66.8308 53.3974 67.1699 52.1601 67.848 51.2202C68.5381 50.2685 69.5791 49.7926 70.9711 49.7926C71.8515 49.7926 72.5594 50.0246 73.0947 50.4886C73.6301 50.9406 73.8978 51.5831 73.8978 52.4159C73.8978 53.451 73.5349 54.1767 72.8092 54.5931C72.0954 55.0095 71.1198 55.2177 69.8825 55.2177C69.5375 55.2177 69.2103 55.2058 68.901 55.182C68.9366 56.1219 69.0913 56.8714 69.3649 57.4306C69.6505 57.9898 70.1502 58.2693 70.864 58.2693C71.3875 58.2693 71.8455 58.1385 72.2381 57.8767C72.6426 57.6031 72.9579 57.2224 73.184 56.7346ZM70.6855 50.8098C70.0431 50.8098 69.591 51.1489 69.3293 51.827C69.0675 52.4932 68.9248 53.3141 68.901 54.2897C69.2579 54.3135 69.5196 54.3254 69.6862 54.3254C71.1852 54.3254 71.9347 53.7246 71.9347 52.523C71.9347 52.0352 71.8277 51.6307 71.6135 51.3095C71.4113 50.9763 71.1019 50.8098 70.6855 50.8098Z" fill="white"/>
</svg>
