<svg xmlns="http://www.w3.org/2000/svg" width="275" height="281" viewBox="0 0 275 281"><g><g><g/><g><g><path fill="#fff" d="M41.929 150.92a1.162 1.162 0 0 1 0 1.509l-13.622 13.607a2.65 2.65 0 0 1-1.882.767H1.535a.62.62 0 0 1-.445-1.039l13.299-13.063a1.261 1.261 0 0 0 0-1.781l-13.3-13.336a.618.618 0 0 1 .446-1.064H26.4a2.677 2.677 0 0 1 1.907.792L41.93 150.92zm-16.569 3.76a2.998 2.998 0 0 0 2.997-2.944 2.992 2.992 0 0 0-1.833-2.783 3 3 0 0 0-4.1 2.165 2.99 2.99 0 0 0 1.269 3.08 3 3 0 0 0 1.667.507z"/></g><g><path fill="#fff" d="M246.72 137.312a2.65 2.65 0 0 1 1.882-.792h24.89a.644.644 0 0 1 .445 1.064l-13.299 13.335a1.261 1.261 0 0 0 0 1.782l13.3 13.063a.618.618 0 0 1-.446 1.04h-24.89a2.653 2.653 0 0 1-1.882-.768l-13.622-13.607a1.162 1.162 0 0 1 0-1.51zm2.947 17.393a3 3 0 0 0 2.77-1.854 2.992 2.992 0 0 0-2.201-4.08 3 3 0 0 0-3.073 1.295 2.99 2.99 0 0 0-.257 2.804 2.97 2.97 0 0 0 2.76 1.81z"/></g><g><path fill="#b27944" d="M112.062 45.75h50.894a2.973 2.973 0 0 1 2.972 2.969 2.968 2.968 0 0 1-2.972 2.969h-50.894a2.95 2.95 0 0 1-2.752-1.829 2.942 2.942 0 0 1-.22-1.14 2.967 2.967 0 0 1 2.972-2.969z"/></g><g><path fill="#b27944" d="M111.103 56.134h52.825a2.007 2.007 0 0 1 2.006 2.103 28.464 28.464 0 0 1-8.749 19.365 28.52 28.52 0 0 1-19.732 7.925 28.521 28.521 0 0 1-19.732-7.925 28.465 28.465 0 0 1-8.748-19.365 2.002 2.002 0 0 1 2.13-2.103z"/></g><g><path fill="#b27944" d="M145.924.988a.791.791 0 0 1 1.239-.841 17.92 17.92 0 0 1 6.23 6.719 17.899 17.899 0 0 1 2.091 8.917c-.693 10.738-14.488 12.742-16.123 24.395a.792.792 0 0 1-1.386.396 15.433 15.433 0 0 1-3.542-13.806c2.056-8.956 15.132-10.416 11.491-25.78z"/></g><g><path fill="#fff" d="M15.228 112.598l3.602-10.25c1.84-5.235 4.785-7.142 8.836-5.722 2.232.783 3.538 2.493 3.919 5.131.866-1.302 1.925-2.183 3.177-2.642 1.26-.484 2.666-.453 4.218.091 2.353.825 3.867 2.255 4.542 4.288.684 2.01.493 4.528-.571 7.557l-3.59 10.215-2.947-1.034.312-1.238c.175-.728-.042-1.199-.648-1.411l-16.92-5.934-.837 2.033zm15.459-1.887l7.604 2.667 1.201-3.417c1.107-3.15.375-5.177-2.196-6.078-1.213-.426-2.275-.35-3.187.23-.928.545-1.647 1.545-2.158 2.999zm-9.825-3.446l6.586 2.31.946-2.69c.527-1.502.612-2.711.252-3.627-.375-.948-1.12-1.618-2.236-2.01-1.116-.39-2.032-.304-2.749.262-.708.54-1.296 1.478-1.764 2.81z"/></g><g><path fill="#fff" d="M58.217 82.66l-9.93 15.43-2.633-1.692.592-1.134c.34-.67.238-1.18-.304-1.527l-15.12-9.71-1.289 1.789-2.763-1.775 9.573-14.878 5.398 3.467-1.905 3.46-1.3-.836c-.369-.237-.664-.35-.885-.339-.222.011-.465.222-.73.634l-3.093 4.807 5.56 3.571 4.828-7.504 3.317 2.13-4.829 7.504 6.081 3.905 3.365-5.23c.251-.39.336-.688.253-.893-.103-.22-.34-.448-.708-.685L50.07 82.11l2.36-3.167z"/></g><g><path fill="#fff" d="M64.682 71.081c2.221-2.155 2.47-4.12.744-5.896-.899-.925-2.054-1.133-3.467-.625-.77.243-1.68.658-2.729 1.244-1.03.569-1.931 1.011-2.702 1.328-.77.28-1.632.486-2.582.618-1.884.245-3.643-.473-5.28-2.157-1.653-1.702-2.364-3.6-2.132-5.692.232-2.13 1.293-4.11 3.182-5.942 1.907-1.85 4.044-3.185 6.41-4.007l4.044 4.162-2.644 2.941-1.564-1.609c-.27-.277-.504-.445-.704-.503-.545-.153-1.373.308-2.484 1.386-1.093 1.06-1.719 2.043-1.878 2.953-.141.89.184 1.744.975 2.557.575.592 1.3.895 2.176.908.584.008 1.262-.164 2.034-.517.772-.39 1.58-.797 2.427-1.222a17.313 17.313 0 0 1 2.397-1.031c.752-.262 1.612-.45 2.581-.563 1.939-.263 3.753.475 5.442 2.213 1.69 1.74 2.39 3.719 2.102 5.939-.27 2.201-1.433 4.3-3.488 6.292-2.037 1.976-4.238 3.374-6.605 4.196l-4.26-4.384 2.644-2.942 1.645 1.693c.27.277.505.445.704.503.2.057.548-.029 1.044-.258.497-.267 1.153-.795 1.968-1.585z"/></g><g><path fill="#fff" d="M82.277 56.25l-9.07-15.037-2.585 1.556c-.509.306-.557.802-.144 1.486l.94 1.557-3.522 1.804-3.397-5.631 17.34-10.438 3.397 5.631-3.242 2.268-.939-1.557c-.226-.375-.441-.607-.645-.695-.204-.088-.516-.006-.936.247l-2.254 1.357 9.549 15.833 2.679-1.478 1.698 2.816-9.35 5.628-1.618-2.683 1.697-1.157c.601-.452.735-.954.402-1.506z"/></g><g><path fill="#fff" d="M188.474 54.817c2.695 1.516 4.649 1.197 5.863-.956.632-1.122.505-2.286-.382-3.494-.451-.668-1.106-1.42-1.965-2.258-.836-.825-1.515-1.562-2.037-2.21a12.58 12.58 0 0 1-1.323-2.295c-.768-1.732-.577-3.619.574-5.66 1.163-2.063 2.78-3.28 4.853-3.65 2.107-.381 4.305.073 6.595 1.361 2.313 1.302 4.198 2.968 5.655 4.999l-2.845 5.047-3.568-1.698 1.1-1.951c.19-.336.284-.608.283-.816-.007-.565-.684-1.227-2.031-1.985-1.325-.745-2.445-1.065-3.362-.96-.894.117-1.62.669-2.176 1.656-.404.717-.489 1.497-.254 2.339.157.56.514 1.16 1.071 1.798l1.858 1.977c.67.701 1.225 1.368 1.667 2 .464.646.887 1.416 1.27 2.31.8 1.78.606 3.725-.582 5.833-1.189 2.109-2.888 3.339-5.097 3.69-2.187.366-4.527-.153-7.02-1.555-2.469-1.39-4.432-3.1-5.89-5.131l2.997-5.316 3.568 1.697-1.157 2.052c-.19.337-.284.609-.282.816 0 .208.182.517.542.926.396.4 1.088.878 2.075 1.434z"/></g><g><path fill="#fff" d="M214.096 73.11l4.556-4.903-8.028-7.445-5.32 5.725 1.566 1.61-2.238 2.41-6.866-6.367 2.133-2.296 1.016.783c.6.452 1.12.442 1.56-.03l12.246-13.179-1.538-1.585 2.238-2.409 6.866 6.367-2.134 2.296-1.015-.783c-.338-.243-.634-.36-.89-.35-.237-.01-.514.155-.83.496l-4.082 4.393 8.029 7.445 4.845-5.215-1.538-1.585 2.239-2.409 6.865 6.367-2.133 2.296-1.015-.783c-.601-.452-1.156-.404-1.665.144l-12.141 13.065 1.538 1.585-2.238 2.409-6.866-6.367 2.133-2.296 1.015.784c.32.225.598.342.835.352.256-.01.541-.185.857-.525z"/></g><g><path fill="#fff" d="M245.63 79.014c1.616 2.609 2.046 5.36 1.29 8.253-.757 2.894-3.034 5.514-6.83 7.862-3.773 2.334-7.18 3.228-10.22 2.682-3.004-.538-5.43-2.297-7.277-5.278-1.833-2.96-2.308-5.88-1.423-8.762.885-2.882 3.17-5.463 6.857-7.742 2.019-1.249 3.968-2.045 5.849-2.39 1.903-.358 3.57-.312 5.001.136 2.899.906 5.15 2.653 6.752 5.24zm-14.892 1.023c-5.441 3.365-6.994 6.933-4.657 10.703 1.25 2.017 2.96 2.915 5.13 2.695 1.931-.164 3.961-.904 6.09-2.22 1.909-1.181 3.46-2.596 4.655-4.244.646-.915.984-1.913 1.014-2.992.042-1.057-.31-2.189-1.057-3.394-.747-1.206-1.787-2.003-3.12-2.391a7.314 7.314 0 0 0-3.964-.005c-1.323.363-2.686.98-4.09 1.848z"/></g><g><path fill="#fff" d="M231.048 106.853l2.992-.94.494 1.182c.298.69.755.939 1.37.745l17.17-5.395-.55-2.137 3.138-.987 3.322 10.55c.867 2.755.888 5.1.064 7.034-.793 1.952-2.481 3.333-5.066 4.146-2.585.812-4.878.573-6.88-.717-1.978-1.297-3.42-3.384-4.326-6.262l-.987-3.135-5.354 1.682 1.004 3.576-3.139.987zm14.323 2.958l.836 2.656c1.13 3.59 3.16 4.926 6.09 4.005 1.772-.557 2.795-1.391 3.067-2.504.304-1.095.139-2.651-.496-4.668l-.709-2.25z"/></g><g><g><path fill="#fff" d="M36.068 190.872l.863-.365.87 2.048-7.156 3.03-.413-.973 6.292-2.665z"/></g><g><path fill="#fff" d="M41.244 202.134c.81.02 1.462.473 1.955 1.359.493.885.534 1.677.124 2.375-.406.705-1.15 1.357-2.228 1.957-1.092.606-2.045.896-2.859.87-.81-.021-1.461-.474-1.954-1.36-.493-.885-.535-1.677-.125-2.375.41-.698 1.162-1.35 2.253-1.957 1.086-.603 2.03-.893 2.834-.87zm.686 3.928c.33-.284.541-.598.635-.944.1-.35.031-.736-.204-1.16-.232-.417-.523-.675-.873-.775-.344-.103-.725-.093-1.144.03-.415.13-.899.349-1.451.656-.56.31-1.007.61-1.343.897-.326.29-.539.61-.638.96-.1.349-.034.732.198 1.15.236.423.529.684.878.784.35.1.733.085 1.148-.045.426-.127.918-.346 1.476-.657.553-.307.992-.605 1.318-.896z"/></g><g><path fill="#fff" d="M47.01 211.861c.809-.064 1.504.32 2.086 1.15.582.829.705 1.612.37 2.349-.331.743-1.003 1.469-2.014 2.177-1.023.716-1.94 1.103-2.752 1.16-.808.064-1.503-.319-2.085-1.148-.583-.83-.706-1.613-.37-2.35.335-.737 1.014-1.464 2.037-2.18 1.017-.713 1.927-1.098 2.729-1.158zm1.09 3.836c.299-.316.477-.651.534-1.005.063-.358-.045-.735-.324-1.132-.274-.39-.59-.618-.948-.68-.352-.068-.73-.018-1.134.148-.4.172-.859.44-1.376.802-.524.367-.938.71-1.242 1.031-.294.323-.473.663-.536 1.021-.063.358.043.732.317 1.123.278.397.597.627.955.69.358.063.737.008 1.137-.164.41-.17.876-.44 1.4-.806.517-.362.923-.705 1.218-1.028z"/></g><g><path fill="#fff" d="M54.602 220.483c.31.342.455.726.434 1.152-.01.425-.198.803-.563 1.133-.365.33-.758.483-1.178.457-.42-.027-.788-.214-1.104-.562-.316-.348-.465-.733-.45-1.153.016-.42.206-.795.571-1.125.365-.33.758-.483 1.178-.457.426.021.796.206 1.112.555zm2.871 3.315l-8.766 1.912-.666-.734 8.766-1.913zm-4.687-2.891c-.218.197-.341.417-.369.66a.843.843 0 0 0 .233.667.857.857 0 0 0 .648.305c.25.002.483-.096.701-.293.218-.197.338-.42.361-.668a.856.856 0 0 0-.24-.675.845.845 0 0 0-.64-.297c-.245.004-.476.104-.694.301zm.545 5.212c.315.348.463.73.442 1.145-.015.42-.206.795-.57 1.125-.366.33-.761.485-1.187.464-.415-.02-.78-.205-1.096-.554-.31-.343-.46-.727-.45-1.152.021-.426.214-.803.58-1.133.364-.33.757-.483 1.177-.457.42.026.788.214 1.104.562zm-1.808.417c-.218.197-.341.417-.369.66a.856.856 0 0 0 .24.675.81.81 0 0 0 .633.288c.25.002.484-.095.702-.292.218-.197.338-.42.36-.669a.81.81 0 0 0-.224-.658.857.857 0 0 0-.648-.305c-.245.004-.476.104-.694.301z"/></g><g><path fill="#fff" d="M72.84 237.725c.572.436.985.961 1.236 1.577a3.58 3.58 0 0 1 .227 1.957c-.101.68-.383 1.323-.846 1.93-.463.608-1.01 1.055-1.643 1.34a3.61 3.61 0 0 1-1.942.295c-.661-.078-1.278-.335-1.852-.77a3.863 3.863 0 0 1-1.254-1.59 3.6 3.6 0 0 1-.234-1.95c.106-.684.39-1.33.853-1.938.463-.608 1.008-1.051 1.637-1.33a3.59 3.59 0 0 1 1.948-.304 3.868 3.868 0 0 1 1.87.783zm-.568.745a2.803 2.803 0 0 0-1.376-.575c-.48-.06-.957.02-1.43.241-.464.22-.882.576-1.256 1.066-.37.485-.6.983-.694 1.494-.087.514-.04.998.143 1.45.192.45.502.838.929 1.162.42.32.874.508 1.359.563.49.059.967-.022 1.43-.242.473-.221.895-.574 1.264-1.06.374-.49.602-.99.685-1.5.093-.51.043-.99-.15-1.44a2.72 2.72 0 0 0-.904-1.159z"/></g><g><path fill="#fff" d="M78.501 251.123l-.073-3.763-.931-.569-1.657 2.706-.856-.523 4.056-6.623 2.182 1.333c.752.46 1.205.987 1.359 1.58.157.587.054 1.177-.31 1.772-.33.54-.747.882-1.251 1.03-.5.142-1.061.08-1.681-.188l.131 3.837zm-.624-4.952l1.25.765c.972.594 1.719.465 2.24-.387.522-.852.297-1.575-.675-2.168l-1.25-.765z"/></g><g><path fill="#fff" d="M90.034 248.41l-3.429 6.967-.9-.442 3.43-6.968z"/></g><g><path fill="#fff" d="M99.219 252.34c.843.325 1.469.807 1.876 1.444.414.64.582 1.358.503 2.154l-.988-.381a2.364 2.364 0 0 0-.454-1.392c-.295-.42-.716-.736-1.264-.948a2.725 2.725 0 0 0-1.462-.162 2.578 2.578 0 0 0-1.303.618c-.383.34-.686.798-.909 1.373-.228.59-.312 1.143-.252 1.662.062.512.247.96.554 1.347.317.382.736.674 1.257.875.446.172.89.233 1.335.184.445-.048.854-.21 1.227-.482.383-.278.694-.654.932-1.128l-2.848-1.1.27-.698 3.64 1.405-.333.863a3.857 3.857 0 0 1-1.139 1.355 3.44 3.44 0 0 1-1.622.65c-.606.08-1.228-.003-1.866-.249-.699-.27-1.256-.662-1.672-1.176a3.567 3.567 0 0 1-.75-1.789c-.078-.675.023-1.373.3-2.092.279-.719.672-1.299 1.182-1.74a3.555 3.555 0 0 1 1.763-.83c.656-.11 1.33-.03 2.023.237z"/></g><g><path fill="#fff" d="M107.576 255.198l-2.153 7.46-.964-.278 2.153-7.46z"/></g><g><path fill="#fff" d="M118.268 265.7l-.984-.19-2.793-6.79-1.168 6.022-.985-.19 1.479-7.623.985.191 2.79 6.8 1.17-6.033.986.191z"/></g><g><path fill="#fff" d="M129.384 264.992l-3.406-.273-.792 1.738-1.077-.086 3.476-7.367 1.132.09 2.249 7.825-1.077-.086zm-.223-.803l-1.105-4.02-1.73 3.794z"/></g><g><path fill="#fff" d="M137.996 266.406l2.756-.047.013.782-3.759.064-.131-7.763 1.003-.017z"/></g><g><path fill="#fff" d="M157.638 257.593c.932-.172 1.745-.082 2.437.269.69.343 1.225.891 1.602 1.643l-1.04.191a2.559 2.559 0 0 0-1.165-1.03c-.49-.223-1.049-.277-1.678-.162a2.548 2.548 0 0 0-1.276.615c-.347.31-.594.714-.742 1.211-.141.49-.157 1.037-.045 1.643.11.6.319 1.103.625 1.51.314.404.688.694 1.124.868.44.165.91.202 1.41.11.629-.115 1.133-.36 1.512-.736a2.62 2.62 0 0 0 .72-1.386l1.041-.191c-.085.837-.389 1.542-.911 2.115-.524.567-1.252.935-2.184 1.107-.716.13-1.378.084-1.987-.14a3.543 3.543 0 0 1-1.543-1.139c-.413-.536-.688-1.18-.826-1.93-.14-.759-.112-1.462.083-2.11a3.445 3.445 0 0 1 1.037-1.612c.488-.433 1.09-.715 1.806-.846z"/></g><g><path fill="#fff" d="M168.396 254.848c.691-.203 1.36-.223 2.005-.06.652.16 1.223.486 1.713.977.487.484.838 1.093 1.054 1.825.216.733.25 1.438.106 2.116a3.602 3.602 0 0 1-.913 1.738c-.455.485-1.028.83-1.719 1.033a3.87 3.87 0 0 1-2.025.067 3.608 3.608 0 0 1-1.71-.967c-.49-.492-.842-1.104-1.057-1.836-.216-.733-.25-1.434-.103-2.105.145-.678.448-1.26.91-1.748a3.866 3.866 0 0 1 1.74-1.04zm.265.899a2.802 2.802 0 0 0-1.28.766c-.333.35-.551.782-.653 1.294-.097.503-.059 1.05.116 1.642.172.584.436 1.065.792 1.443.364.375.781.624 1.254.745a2.87 2.87 0 0 0 1.488-.058c.508-.15.927-.403 1.258-.76.339-.36.557-.791.654-1.294.102-.513.067-1.06-.106-1.646-.174-.591-.441-1.071-.803-1.44a2.472 2.472 0 0 0-1.25-.734 2.725 2.725 0 0 0-1.47.042z"/></g><g><path fill="#fff" d="M179.745 250.691l.308.755-3.143 1.283 1.017 2.487 2.664-1.087.296.724-2.663 1.087 1.317 3.221-.928.38-2.94-7.188z"/></g><g><path fill="#fff" d="M189.265 246.212l.375.724-3.016 1.558 1.235 2.387 2.556-1.32.36.695-2.557 1.32 1.6 3.09-.892.461-3.568-6.897z"/></g><g><path fill="#fff" d="M195.49 243.36l1.456 2.22 2.472-1.616.422.645-2.471 1.617 1.485 2.266 2.748-1.797.447.681-3.587 2.347-4.258-6.495 3.588-2.347.447.682z"/></g><g><path fill="#fff" d="M204.354 237.29l1.673 2.062 2.295-1.858.486.599-2.295 1.858 1.707 2.105 2.552-2.067.514.634-3.332 2.697-4.893-6.032 3.332-2.697.513.633z"/></g><g><path fill="#fff" d="M221.667 224.877a2.01 2.01 0 0 1 1.277-.417c.464.006.875.167 1.234.482.475.417.713.914.713 1.491.006.572-.26 1.164-.799 1.776l-1.906 2.168-5.838-5.126 1.877-2.134c.515-.585 1.035-.915 1.561-.99.526-.076 1.016.085 1.469.483.375.33.589.698.641 1.105.057.403-.02.79-.23 1.162zm-2.098 1.868l1.106-1.257c.325-.37.487-.726.485-1.07.004-.348-.149-.658-.458-.93-.298-.262-.618-.371-.958-.328-.341.042-.687.262-1.036.66l-1.077 1.224zm3.77 1.052c.35-.397.528-.783.535-1.158.012-.38-.148-.716-.48-1.007-.325-.286-.678-.396-1.06-.33-.381.056-.747.283-1.096.68l-1.106 1.257 2.087 1.832z"/></g><g><path fill="#fff" d="M224.927 216.145l2.164 1.54 1.714-2.405.628.448-1.714 2.404 2.21 1.571 1.905-2.673.664.473-2.487 3.49-6.33-4.505 2.487-3.49.665.474z"/></g><g><path fill="#fff" d="M237.145 206.623l-1.686 2.97 1.243 1.45-.533.939-5.217-6.259.56-.987 8.05 1.268-.533.939zm-.822-.137l-4.116-.698 2.713 3.17z"/></g><g><path fill="#fff" d="M244.522 195.128l-.4.92-7.24 1.25 5.631 2.446-.4.919-7.127-3.096.4-.919 7.25-1.246-5.642-2.45.4-.92z"/></g></g><g/><g/><g/><g/><g><path fill="#fff" d="M138.429 203L152 189.43 150.572 188 137 201.572 123.43 188 122 189.429 135.572 203 122 216.571 123.43 218 137 204.429 150.571 218l1.429-1.429z"/></g></g><g><path fill="#fff" d="M99.91 133v33h-5.85v-27.55l-8 27.55h-3.9l-8-27.65V166h-4.7v-33h8.8l6.65 23.75 6.6-23.75zm9.076-3c1.1 0 1.983.267 2.65.8.7.533 1.05 1.3 1.05 2.3 0 1.033-.367 1.833-1.1 2.4-.7.533-1.617.8-2.75.8-1.1 0-1.984-.267-2.65-.8-.667-.533-1-1.3-1-2.3 0-1.033.35-1.817 1.05-2.35.733-.567 1.65-.85 2.75-.85zm2.6 31.9c0 1.633.516 2.733 1.55 3.3-.267.5-.7.883-1.3 1.15-.6.267-1.25.4-1.95.4-1.267 0-2.217-.367-2.85-1.1-.634-.733-.95-1.767-.95-3.1V140.5h5.5zm7.007 4.1v-35l5.5-.6V166zm14.55-25.5h5.8l-8.65 10.6 8.85 14.9h-6.4l-7.95-14zm9.278 25.5v-35l5.5-.6V166zm14.55-25.5h5.8l-8.65 10.6 8.85 14.9h-6.4l-7.95-14zm25.178 18.45c.767.367 1.15 1.083 1.15 2.15 0 1.2-.4 2.267-1.2 3.2-.8.9-1.833 1.583-3.1 2.05-1.267.5-2.55.75-3.85.75-3.667 0-6.383-1.183-8.15-3.55-1.767-2.4-2.65-5.617-2.65-9.65 0-4.3.95-7.767 2.85-10.4 1.933-2.667 4.85-4 8.75-4 2.467 0 4.45.65 5.95 1.95 1.5 1.267 2.25 3.067 2.25 5.4 0 2.9-1.017 4.933-3.05 6.1-2 1.167-4.733 1.75-8.2 1.75-.967 0-1.883-.033-2.75-.1.1 2.633.533 4.733 1.3 6.3.8 1.567 2.2 2.35 4.2 2.35 1.467 0 2.75-.367 3.85-1.1 1.133-.767 2.017-1.833 2.65-3.2zm-7-16.6c-1.8 0-3.067.95-3.8 2.85-.733 1.867-1.133 4.167-1.2 6.9 1 .067 1.733.1 2.2.1 4.2 0 6.3-1.683 6.3-5.05 0-1.367-.3-2.5-.9-3.4-.567-.933-1.433-1.4-2.6-1.4zm29.9 16.6c.767.367 1.15 1.083 1.15 2.15 0 1.2-.4 2.267-1.2 3.2-.8.9-1.833 1.583-3.1 2.05-1.266.5-2.55.75-3.85.75-3.666 0-6.383-1.183-8.15-3.55-1.766-2.4-2.65-5.617-2.65-9.65 0-4.3.95-7.767 2.85-10.4 1.934-2.667 4.85-4 8.75-4 2.467 0 4.45.65 5.95 1.95 1.5 1.267 2.25 3.067 2.25 5.4 0 2.9-1.016 4.933-3.05 6.1-2 1.167-4.733 1.75-8.2 1.75-.966 0-1.883-.033-2.75-.1.1 2.633.534 4.733 1.3 6.3.8 1.567 2.2 2.35 4.2 2.35 1.467 0 2.75-.367 3.85-1.1 1.134-.767 2.017-1.833 2.65-3.2zm-7-16.6c-1.8 0-3.066.95-3.8 2.85-.733 1.867-1.133 4.167-1.2 6.9 1 .067 1.734.1 2.2.1 4.2 0 6.3-1.683 6.3-5.05 0-1.367-.3-2.5-.9-3.4-.566-.933-1.433-1.4-2.6-1.4z"/></g></g></g></svg>