<svg xmlns="http://www.w3.org/2000/svg" width="35" height="35" viewBox="0 0 35 35"><g><g><path fill="#6ea753" d="M34.928 21.296a.711.711 0 0 1 .072.306v11.347C35 34.08 34.08 35 32.95 35H2.05C.92 35 0 34.08 0 32.95V21.601c0-.106.028-.219.072-.306l5.091-10.181C5.55 10.34 6.731 9.98 7.407 9.98h6.675V.684c0-.378.306-.684.684-.684h5.468c.378 0 .684.306.684.684V9.98h7.085a2.04 2.04 0 0 1 1.834 1.135zm-19.479-7.898a.684.684 0 0 1-.683.684h-1.313L17.5 19.14l4.047-5.058h-1.313a.684.684 0 0 1-.683-.684V1.368h-4.102zm-13.66 7.52h10.242c.378 0 .684.306.684.684v3.417h9.57v-3.417c0-.378.306-.684.684-.684H33.21l-4.596-9.192a.68.68 0 0 0-.611-.378h-7.085v1.367h2.05a.684.684 0 0 1 .534 1.11l-5.468 6.836a.684.684 0 0 1-1.068 0l-5.469-6.836a.683.683 0 0 1 .534-1.11h2.051v-1.367H7.407c-.398 0-.937.24-1.023.38zm31.16 12.715a.684.684 0 0 0 .684-.684v-2.256H20.234a.684.684 0 1 1 0-1.367h13.399v-7.04h-9.98v3.417a.684.684 0 0 1-.684.684H12.03a.684.684 0 0 1-.683-.684v-3.418h-9.98v7.041h13.398a.684.684 0 1 1 0 1.367H1.367v2.256c0 .377.307.684.684.684z"/></g></g></svg>